<?xml version="1.0" encoding="UTF-8" standalone="no" ?>
<!DOCTYPE svg PUBLIC "-//W3C//DTD SVG 1.1//EN" "http://www.w3.org/Graphics/SVG/1.1/DTD/svg11.dtd">
<svg xmlns="http://www.w3.org/2000/svg" xmlns:xlink="http://www.w3.org/1999/xlink" version="1.1" width="1000" height="1000" viewBox="0 0 640 640" xml:space="preserve">
<desc>Created with Fabric.js 4.6.0</desc>
<defs>
</defs>
<g transform="matrix(1 0 0 1 320 320)" id="_qwVk-7udxTvJ3vfWFBjk"  >
<g style="" vector-effect="non-scaling-stroke"   >
		<g transform="matrix(1 0 0 1 -79.5 -60.4)" id="Hb7yIhD32ZmAd2mrtM-r0"  >
<path style="stroke: none; stroke-width: 1; stroke-dasharray: none; stroke-linecap: butt; stroke-dashoffset: 0; stroke-linejoin: miter; stroke-miterlimit: 4; fill: rgb(216,255,0); fill-rule: nonzero; opacity: 1;" vector-effect="non-scaling-stroke"  transform=" translate(-320.5, -339.6)" d="M 338.1 294.3 L 292.1 323.7 L 263.90000000000003 384.9 L 377.1 312.5 z" stroke-linecap="round" />
</g>
		<g transform="matrix(1 0 0 1 49.1 134.4)" id="Zchnpr1iIiuifKsOk6Tll"  >
<path style="stroke: none; stroke-width: 1; stroke-dasharray: none; stroke-linecap: butt; stroke-dashoffset: 0; stroke-linejoin: miter; stroke-miterlimit: 4; fill: rgb(216,255,0); fill-rule: nonzero; opacity: 1;" vector-effect="non-scaling-stroke"  transform=" translate(-449.1, -534.4)" d="M 539.7 526.1 C 523.3000000000001 544.1 501.70000000000005 550.1 480.30000000000007 540.3000000000001 C 480.1000000000001 540.3000000000001 479.70000000000005 539.9000000000001 478.9000000000001 539.7 C 481.5000000000001 533.9000000000001 507.30000000000007 478.1 507.30000000000007 478.1 L 439.30000000000007 521.5 L 345.9000000000001 478.3 L 399.30000000000007 444.1 L 360.30000000000007 426.1 L 290.50000000000006 470.70000000000005 L 282.30000000000007 488.70000000000005 L 615.9000000000001 642.7 L 539.7 526.1 z" stroke-linecap="round" />
</g>
		<g transform="matrix(1 0 0 1 180.3 -123.9)" id="zE2bnVnUEDk38-PL0moXZ"  >
<path style="stroke: none; stroke-width: 1; stroke-dasharray: none; stroke-linecap: butt; stroke-dashoffset: 0; stroke-linejoin: miter; stroke-miterlimit: 4; fill: rgb(216,255,0); fill-rule: nonzero; opacity: 1;" vector-effect="non-scaling-stroke"  transform=" translate(-580.3, -276.1)" d="M 540.3 319.7 C 538.5 323.7 517.9 368.09999999999997 517.9 368.09999999999997 L 574.5 331.9 L 642.7 184.09999999999997 L 526.1 260.5 C 544.3 276.9 550.1 298.5 540.3 319.7 z" stroke-linecap="round" />
</g>
		<g transform="matrix(1 0 0 1 -170.9 103.7)" id="sjFJmQOR9mqgoGBxtedDl"  >
<path style="stroke: none; stroke-width: 1; stroke-dasharray: none; stroke-linecap: butt; stroke-dashoffset: 0; stroke-linejoin: miter; stroke-miterlimit: 4; fill: rgb(216,255,0); fill-rule: nonzero; opacity: 1;" vector-effect="non-scaling-stroke"  transform=" translate(-229.1, -503.7)" d="M 259.9 480.3 L 300.9 391.5 L 244.09999999999997 427.7 L 157.29999999999995 615.9 L 273.9 539.6999999999999 C 255.9 523.3 250.1 501.5 259.9 480.3 z" stroke-linecap="round" />
</g>
		<g transform="matrix(1 0 0 1 75.9 34.6)" id="Mo2khssN5xa-l8tiQn9Qw"  >
<path style="stroke: none; stroke-width: 1; stroke-dasharray: none; stroke-linecap: butt; stroke-dashoffset: 0; stroke-linejoin: miter; stroke-miterlimit: 4; fill: rgb(216,255,0); fill-rule: nonzero; opacity: 1;" vector-effect="non-scaling-stroke"  transform=" translate(-475.9, -434.6)" d="M 396.9 475.9 L 436.29999999999995 494.09999999999997 L 526.5 436.49999999999994 L 554.9 375.09999999999997 C 554.9 374.9 410.3 467.3 396.9 475.9 z" stroke-linecap="round" />
</g>
		<g transform="matrix(1 0 0 1 27.3 -189.64)" id="iCAzE8dtNIoElTgiNlS0M"  >
<path style="stroke: none; stroke-width: 1; stroke-dasharray: none; stroke-linecap: butt; stroke-dashoffset: 0; stroke-linejoin: miter; stroke-miterlimit: 4; fill: rgb(216,255,0); fill-rule: nonzero; opacity: 1;" vector-effect="non-scaling-stroke"  transform=" translate(-427.3, -210.36)" d="M 364.7 215.1 C 372.3 213.7 379.9 212.7 387.7 212.1 C 430.7 209.29999999999998 472.29999999999995 220.9 507.1 245.1 L 539.1 224.1 C 495.5 189.5 441.3 172.5 385.3 176.1 C 360.7 177.7 337.1 183.29999999999998 315.5 192.1 L 364.7 215.1 z" stroke-linecap="round" />
</g>
		<g transform="matrix(1 0 0 1 189.32 27.4)" id="j2O09rUcrAofBT5kM6a6y"  >
<path style="stroke: none; stroke-width: 1; stroke-dasharray: none; stroke-linecap: butt; stroke-dashoffset: 0; stroke-linejoin: miter; stroke-miterlimit: 4; fill: rgb(216,255,0); fill-rule: nonzero; opacity: 1;" vector-effect="non-scaling-stroke"  transform=" translate(-589.32, -427.4)" d="M 584.9 365.1 C 586.3 372.5 587.3 380.1 587.6999999999999 387.90000000000003 C 590.4999999999999 430.70000000000005 578.9 472.30000000000007 554.6999999999999 507.1 L 575.4999999999999 539.1 C 608.6999999999999 497.1 627.0999999999999 443.1 623.4999999999999 385.5 C 621.8999999999999 361.1 616.4999999999999 337.7 607.6999999999999 315.7 L 584.9 365.1 z" stroke-linecap="round" />
</g>
		<g transform="matrix(1 0 0 1 -189.64 -27.3)" id="hisGdlSAlfNbcDCkBu6ci"  >
<path style="stroke: none; stroke-width: 1; stroke-dasharray: none; stroke-linecap: butt; stroke-dashoffset: 0; stroke-linejoin: miter; stroke-miterlimit: 4; fill: rgb(216,255,0); fill-rule: nonzero; opacity: 1;" vector-effect="non-scaling-stroke"  transform=" translate(-210.36, -372.7)" d="M 215.1 435.3 C 213.7 427.7 212.7 420.1 212.1 412.1 C 209.29999999999998 368.1 221.7 326.70000000000005 245.1 292.90000000000003 L 224.1 260.90000000000003 C 190.89999999999998 302.90000000000003 172.3 356.90000000000003 176.1 414.5 C 177.7 439.3 183.29999999999998 462.7 192.1 484.5 L 215.1 435.3 z" stroke-linecap="round" />
</g>
		<g transform="matrix(1 0 0 1 -27.2 189.62)" id="h8wp29C-J6fc-CbturKu6"  >
<path style="stroke: none; stroke-width: 1; stroke-dasharray: none; stroke-linecap: butt; stroke-dashoffset: 0; stroke-linejoin: miter; stroke-miterlimit: 4; fill: rgb(216,255,0); fill-rule: nonzero; opacity: 1;" vector-effect="non-scaling-stroke"  transform=" translate(-372.8, -589.62)" d="M 435.3 584.9 C 427.7 586.3 420.1 587.3 412.3 587.9 C 368.3 590.6999999999999 326.9 578.3 293.1 554.9 L 261.1 575.9 C 303.1 609.1 357.1 627.5 414.70000000000005 623.9 C 439.30000000000007 622.3 462.90000000000003 616.6999999999999 484.50000000000006 607.9 L 435.3 584.9 z" stroke-linecap="round" />
</g>
		<g transform="matrix(1 0 0 1 -48.6 -106.9)" id="pMuJWMGIwqXJzc7T0B2O9"  >
<path style="stroke: none; stroke-width: 1; stroke-dasharray: none; stroke-linecap: butt; stroke-dashoffset: 0; stroke-linejoin: miter; stroke-miterlimit: 4; fill: rgb(216,255,0); fill-rule: nonzero; opacity: 1;" vector-effect="non-scaling-stroke"  transform=" translate(-351.4, -293.1)" d="M 518.7 311.7 L 184.1 157.3 L 260.3 273.9 C 276.7 255.89999999999998 298.3 249.89999999999998 319.7 259.7 L 404.5 298.9 L 387.3 336.29999999999995 L 337.90000000000003 367.69999999999993 L 309.90000000000003 428.49999999999994 L 356.70000000000005 398.49999999999994 L 422.70000000000005 428.8999999999999 L 481.90000000000003 391.0999999999999 L 518.7 311.7 z M 453.3 366.5 L 420.1 387.9 L 393.1 375.5 L 415.70000000000005 361.1 L 437.30000000000007 314.1 L 470.50000000000006 329.5 L 453.3 366.5 z" stroke-linecap="round" />
</g>
</g>
</g>
</svg>