<?xml version="1.0" encoding="UTF-8" standalone="no"?>
<!-- Created with Inkscape (http://www.inkscape.org/) -->

<svg
   xmlns:dc="http://purl.org/dc/elements/1.1/"
   xmlns:cc="http://creativecommons.org/ns#"
   xmlns:rdf="http://www.w3.org/1999/02/22-rdf-syntax-ns#"
   xmlns:svg="http://www.w3.org/2000/svg"
   xmlns="http://www.w3.org/2000/svg"
   xmlns:sodipodi="http://sodipodi.sourceforge.net/DTD/sodipodi-0.dtd"
   xmlns:inkscape="http://www.inkscape.org/namespaces/inkscape"
   width="1470.6755"
   height="1424.7924"
   viewBox="0 0 389.11623 376.97632"
   version="1.1"
   id="svg7462"
   inkscape:version="0.92.3 (2405546, 2018-03-11)"
   sodipodi:docname="virtuspro.svg">
  <defs
     id="defs7456" />
  <sodipodi:namedview
     id="base"
     pagecolor="#000000"
     bordercolor="#666666"
     borderopacity="1.0"
     inkscape:pageopacity="0.32941176"
     inkscape:pageshadow="2"
     inkscape:zoom="0.35"
     inkscape:cx="1004.9498"
     inkscape:cy="712.1044"
     inkscape:document-units="px"
     inkscape:current-layer="layer1"
     showgrid="false"
     units="px"
     fit-margin-top="5"
     fit-margin-bottom="5"
     fit-margin-left="5"
     fit-margin-right="5"
     inkscape:pagecheckerboard="true"
     inkscape:window-width="1920"
     inkscape:window-height="1017"
     inkscape:window-x="1272"
     inkscape:window-y="-8"
     inkscape:window-maximized="1" />
  <metadata
     id="metadata7459">
    <rdf:RDF>
      <cc:Work
         rdf:about="">
        <dc:format>image/svg+xml</dc:format>
        <dc:type
           rdf:resource="http://purl.org/dc/dcmitype/StillImage" />
        <dc:title></dc:title>
      </cc:Work>
    </rdf:RDF>
  </metadata>
  <g
     inkscape:label="Calque 1"
     inkscape:groupmode="layer"
     id="layer1"
     transform="translate(287.54027,122.8096)">
    <path
       inkscape:connector-curvature="0"
       id="path894"
       d="m -122.73647,201.24337 c -16.37109,-28.38059 -29.84214,-51.72935 -29.9357,-51.88617 -0.1089,-0.18259 -1.82147,0.43688 -4.7625,1.72265 -18.05434,7.89307 -32.44955,11.55644 -45.41482,11.55742 -10.46779,0 -19.33594,-2.07484 -29.29218,-6.85591 -13.08008,-6.28116 -26.52443,-16.87254 -46.75378,-36.83231 l -6.53714,-6.45001 1.44555,-3.1346 c 11.86323,-25.724781 26.47302,-51.075221 40.86132,-70.901221 1.77639,-2.44771 3.18855,-4.48159 3.13817,-4.51974 -0.0504,-0.0382 -1.03428,-0.57137 -2.18644,-1.18494 -3.22177,-1.71572 -5.609,-3.40953 -7.94408,-5.63652 l -2.13194,-2.03325 0.63995,-1.14175 c 2.06526,-3.6847 9.77868,-15.2596902 13.36741,-20.0594102 l 0.89019,-1.19063 -24.43244,-42.3184798 -24.43245,-42.318464 2.03473,-1.171601 c 20.76706,-11.957766 46.01427,-23.193664 69.76803,-31.049334 7.98237,-2.63985 24.89555,-7.56301 25.13674,-7.31689 0.0459,0.0469 7.07337,13.2416 15.61661,29.321654 8.54323,16.080052 15.62179,29.33319 15.73011,29.451459 0.10835,0.118242 1.49326,-0.339804 3.07758,-1.017879 5.62777,-2.408608 9.57432,-3.907102 15.71292,-5.966116 12.30434,-4.127129 23.02589,-6.665753 36.52887,-8.649202 l 4.911153,-0.721387 2.05232,-2.301901 c 2.29526,-2.574396 5.59025,-5.461159 7.94067,-6.956902 4.10223,-2.610564 11.47392,-4.102655 20.2691,-4.102655 10.889,0 20.31135,2.406464 24.63189,6.290998 1.61805,1.454758 2.40532,2.785533 3.16542,5.350668 0.3234,1.091407 0.60293,2.006204 0.62116,2.032926 0.0183,0.0267 2.53778,0.4141 5.59895,0.860875 3.06121,0.446776 7.16685,1.097915 9.12368,1.447007 1.95681,0.349091 3.5723,0.616558 3.58995,0.594333 0.0177,-0.02222 5.47521,-10.279724 12.1279395,-22.794517 6.65274,-12.514791 12.12588,-22.784751 12.16258,-22.822111 0.10028,-0.1021 10.0840105,2.65687 15.1492005,4.18642 15.35276,4.63622 30.71931,10.35765 45.91933,17.09714 12.38377,5.490845 35.786037,17.664113 35.600377,18.518426 -0.10242,0.471143 -192.920487,334.501594 -193.090477,334.502364 -0.0728,0 -13.526833,-23.21989 -29.897953,-51.60044 z"
       style="fill:#111821;fill-opacity:1;stroke-width:0.26458335"
       sodipodi:nodetypes="ccscsscsccccccccccsccsccsccccsccccccscccccc" />
    <path
       sodipodi:nodetypes="cscccccccccsccccccccsccccccccccccccccsccc"
       inkscape:connector-curvature="0"
       id="path896"
       d="m 9.7317625,-107.31503 c -0.59817,0.0212 -1.45339,1.58633 -9.67124,17.08991 -5.02047,9.471449 -9.16297,17.367965 -9.20514,17.547776 -0.0505,0.215476 0.85135,0.533559 2.64583,0.933794 3.71263,0.82804 11.33703,2.880439 16.6134805,4.472067 3.6631,1.104953 12.67002,4.170071 12.90153,4.390443 0.0383,0.03646 -0.72326,1.460023 -1.69241,3.163623 -0.97895,1.72085 -1.65679,3.188202 -1.52497,3.301603 0.13051,0.112262 2.02366,0.830659 4.20647,1.596284 12.07294,4.234579 25.93063,10.470439 34.39428,15.476589 1.60012,0.94647 2.98651,1.63671 3.08043,1.53427 0.0939,-0.10248 5.24862,-8.98679 11.45511,-19.743 8.42079,-14.593702 11.19799,-19.61425 10.94301,-19.782763 -1.03965,-0.68715 -18.79121,-9.439487 -22.8477,-11.264953 -11.2827,-5.077328 -24.4004,-10.205272 -35.64797,-13.936083 -5.4687,-1.81398 -14.01495,-4.43719 -15.5323605,-4.76716 -0.0397,-0.009 -0.0785,-0.0138 -0.11835,-0.0124 z m -205.4577425,0.0429 c -0.59212,-0.007 -1.96784,0.36287 -5.3883,1.38649 -15.0151,4.49342 -30.6044,10.314994 -45.81583,17.109018 -7.17095,3.202861 -23.28177,11.264848 -23.28177,11.650451 0,0.442198 39.66374,69.1406798 39.8849,69.0815698 0.1083,-0.0289 2.13236,-2.0991198 4.49792,-4.6007598 6.84493,-7.23876 14.58611,-14.39307 22.2431,-20.55585 3.28893,-2.64713 3.63884,-3.00765 3.49485,-3.60286 -0.088,-0.3638 -0.23018,-3.05694 -0.31625,-5.98466 -0.12732,-4.3298 -0.0724,-5.83568 0.29559,-8.06979 0.63328,-3.844979 1.78342,-7.163489 3.21376,-9.275394 3.26665,-4.823248 9.90373,-9.317011 17.17363,-11.627194 1.45521,-0.462438 2.67777,-0.864737 2.71663,-0.894 0.11168,-0.08409 -17.9693,-34.090031 -18.34049,-34.494021 -0.0699,-0.0761 -0.18039,-0.12057 -0.37774,-0.12301 z m 45.76722,110.4015288 -1.38906,0.16692 c -7.84807,0.94179 -15.76528,4.25927 -22.39812,9.3854602 l -2.48047,1.9172 0.63252,0.48625 c 2.46507,1.89489 10.97039,2.95048 15.71326,1.95027 6.30261,-1.32911 9.92187,-5.83697 9.92187,-12.3578702 z"
       style="opacity:1;vector-effect:none;fill:#fe5000;fill-opacity:1;stroke:none;stroke-width:0.28222224;stroke-linecap:butt;stroke-linejoin:miter;stroke-miterlimit:4;stroke-dasharray:none;stroke-dashoffset:0;stroke-opacity:1;paint-order:markers stroke fill" />
    <path
       style="opacity:1;vector-effect:none;fill:#ffffff;fill-opacity:1;stroke:none;stroke-width:0.28222224;stroke-linecap:butt;stroke-linejoin:miter;stroke-miterlimit:4;stroke-dasharray:none;stroke-dashoffset:0;stroke-opacity:1;paint-order:markers stroke fill"
       d="m -69.375427,-80.151823 c -5.69249,0.04003 -10.4802,1.001633 -14.23736,2.863373 -6.83514,3.386958 -16.473843,12.687909 -28.916583,27.903729 -1.43211,1.75122 -2.40043,2.73589 -2.44793,2.48925 -0.24503,-1.27235 3.63604,-10.940309 6.29574,-15.683283 0.72744,-1.297226 1.25598,-2.424959 1.17462,-2.506292 -0.2022,-0.202195 -6.66256,1.117441 -12.32382,2.517166 -18.27802,4.519163 -36.13729,11.907439 -52.88203,21.877209 -24.24549,14.43572 -46.77328,35.2628698 -63.60438,58.80259 l -2.2593,3.16003 1.64486,0.85058 c 1.74059,0.90046 6.20368,2.45671 7.04609,2.45671 0.3673,0 0.81817,-0.64871 1.7017,-2.4474 2.17969,-4.43746 7.17359,-10.23929 13.93145,-16.1850602 2.75296,-2.42213 7.20643,-5.97377 7.49051,-5.97377 0.0623,0 -0.65291,1.16086 -1.58959,2.57969 -4.37383,6.62514 -8.01061,16.0487002 -8.01553,20.7697702 l -0.003,1.78594 h 1.55287 c 3.56367,0 8.72381,-1.37224 13.44052,-3.57397 3.55753,-1.66063 6.66903,-3.54558 15.98094,-9.68052 4.5938,-3.0265202 10.17492,-6.5162102 12.40287,-7.7550702 11.28519,-6.27508 21.49605,-9.00079 33.06979,-8.82841 l 4.85656,0.0724 -3.5052,2.33421 -3.50469,2.33423 0.18862,1.23764 c 0.1039,0.68065 0.17991,2.4283 0.16846,3.88351 -0.0462,5.8720802 -2.4206,11.0522802 -6.69004,14.5964802 -2.07296,1.72082 -6.14964,3.64554 -9.18446,4.33668 -1.4038,0.3197 -2.73087,0.63484 -2.94915,0.70022 -0.21828,0.0654 0.73422,0.50432 2.11667,0.97565 3.12033,1.06384 6.26869,2.68925 8.29095,4.28038 0.84916,0.66812 1.50281,1.25568 1.45315,1.30537 -0.0497,0.0497 -1.75615,-0.19103 -3.79254,-0.53438 -6.62853,-1.11762 -9.22174,-1.31871 -16.79948,-1.30535 -9.81453,0.0175 -15.69958,0.81937 -28.31042,3.85871 -6.91832,1.66736 -12.32231,2.80861 -15.61042,3.29698 -3.26202,0.4845 -9.91428,0.63722 -13.22916,0.30385 l -1.98438,-0.19947 -3.8804,5.51076 c -12.12509,17.21856 -21.74497,32.62101 -30.43637,48.73141 -4.06461,7.5342 -9.5499,18.266491 -9.40822,18.408181 0.0674,0.0674 0.94385,-0.22588 1.94768,-0.65114 6.43557,-2.7263 14.69655,-4.06813 25.24085,-4.10052 8.53536,-0.0262 14.77402,0.73401 20.28143,2.47219 l 1.86864,0.58965 0.16743,2.95175 c 0.55793,9.83435 0.55758,9.40623 0.013,9.58339 -0.27628,0.0899 -1.3726,0.57946 -2.43655,1.08778 -2.57852,1.2319 -4.79761,3.40432 -5.93918,5.81464 -0.81288,1.71633 -0.8578,1.97189 -0.8578,4.8545 0,2.94529 0.0305,3.10626 0.94824,5.02708 1.82763,3.82535 4.89982,6.73014 9.76738,9.23561 6.57926,3.38648 14.60593,4.95776 21.84929,4.27675 8.92249,-0.83891 15.54573,-3.95216 21.31343,-10.01853 4.34345,-4.56838 6.94706,-9.35456 10.03247,-18.44279 3.49332,-10.28967 5.97794,-16.48602 9.76064,-24.341661 11.66066,-24.21597 27.93614,-41.55549 48.30146,-51.45889 3.22826,-1.56986 8.51733,-3.78664 10.411253,-4.36357 l 0.62217,-0.18965 -0.65215,1.15083 c -0.35864,0.63291 -1.187183,2.16289 -1.841233,3.39982 -0.65405,1.23693 -1.52268,2.87359 -1.93011,3.63749 l -0.74105,1.38906 2.76934,2.84427 c 10.338203,10.61876 19.268923,27.10575 23.225973,42.87698 0.75629,3.014211 1.87019,8.465211 1.87019,9.152411 0,0.25702 -0.97261,0.3841 -3.90261,0.50954 -10.53507,0.45108 -21.889513,2.59244 -32.477603,6.12571 -14.88461,4.96702 -28.39789,12.51603 -40.64146,22.70352 -3.62834,3.01903 -8.79007,7.86422 -8.5907,8.06361 0.0684,0.0684 0.51728,-0.11448 0.99787,-0.40619 4.59822,-2.79112 14.07293,-7.35299 20.71762,-9.97511 15.97409,-6.30368 31.18877,-9.34945 50.932293,-10.19628 8.56983,-0.36756 12.02762,-0.77634 16.98964,-2.00813 10.80878,-2.6832 18.28649,-8.29294 22.20693,-16.65894 3.38651,-7.226591 3.73835,-16.927931 1.01647,-28.031891 -0.42859,-1.74852 -1.0745,-4.04656 -1.43504,-5.10667 l -0.65577,-1.92751 1.05833,0.83767 c 0.58179,0.4608 1.78332,1.64809 2.67012,2.63861 4.33189,4.83835 7.2054,10.70274 8.73795,17.83196 0.76824,3.57381 0.83145,11.003491 0.1235,14.536081 -3.23154,16.1254 -14.17735,25.45876 -33.26669,28.36675 -2.02243,0.30808 -6.15932,0.48029 -15.46106,0.64336 -12.937153,0.22682 -15.703663,0.38534 -23.415633,1.34257 -5.87068,0.72869 -10.55783,1.59668 -16.28635,3.01583 -4.36599,1.08161 -13.21916,3.87987 -13.66533,4.31911 -0.21235,0.20907 23.32871,41.10554 23.73397,41.23159 0.14552,0.0453 1.93146,-2.82559 3.96875,-6.37995 2.0373,-3.55439 3.78587,-6.38019 3.88607,-6.27923 0.10017,0.10097 5.24222,8.96004 11.426163,19.68667 13.6478,23.67336 13.42311,23.28879 13.52217,23.18152 0.044,-0.0477 31.18221,-53.96206 69.19579,-119.810241 v 0 c 38.01356,-65.84818 69.40624,-120.222 69.7611,-120.83038 l 0.64493,-1.10638 -2.99101,-1.77975 c -6.48335,-3.85783 -16.8696,-8.69704 -27.19991,-12.67312 -5.28156,-2.03284 -15.7276805,-5.5205 -19.8437505,-6.62543 -1.52797,-0.41018 -2.87409,-0.82714 -2.99104,-0.92604 -0.11694,-0.0989 0.56767,-1.52223 1.52136,-3.16312 0.95369,-1.640865 1.73426,-3.079881 1.73426,-3.197753 0,-0.502973 -14.57804,-4.503023 -23.9447895,-6.570133 -6.94023,-1.53162 -20.40988,-3.927714 -20.64575,-3.672629 -0.0379,0.04096 -0.20466,1.384618 -0.37053,2.985347 -0.6935,6.692979 -2.27592,13.989368 -4.27466,19.711458 -0.58454,1.67349 -1.11461,3.2213 -1.17824,3.43958 -0.0739,0.25334 0.52668,0.87527 1.66037,1.7198 0.97676,0.7276 3.07654,2.57307 4.66637,4.10104 7.46459,7.17417 13.39273,16.39445 15.48897,24.09102 l 0.53642,1.9704398 -0.58756,-0.79169 c -4.4473,-5.9909298 -10.2158,-11.2676298 -17.65266,-16.1473398 -5.36641,-3.5212 -14.30035,-8.09984 -19.36162,-9.9229 l -0.97256,-0.35039 0.78497,-1.55493 c 1.21073,-2.39845 2.97799,-6.87393 4.15531,-10.52338 4.109,-12.737359 5.18821,-24.750607 2.54508,-28.333171 -1.97165,-2.672424 -6.46899,-4.123425 -13.61107,-4.391977 -0.84976,-0.03196 -1.68172,-0.04501 -2.49494,-0.03926 z m 1.85311,12.126912 c 2.12712,0 2.56509,0.248761 1.57718,0.896065 -1.16281,0.76192 -4.14099,3.682312 -5.69166,5.581041 -4.26397,5.221023 -7.55695,11.497154 -9.14466,17.429954 -0.3466,1.29519 -0.66405,2.37932 -0.70588,2.40914 -0.0419,0.0298 -0.79034,-0.10276 -1.66346,-0.29453 -2.84435,-0.62466 -12.12131,-2.17036 -14.15521,-2.35853 -1.09141,-0.10099 -2.06984,-0.23249 -2.17403,-0.29196 -0.10419,-0.0595 0.29803,-0.90477 0.894,-1.87844 6.97362,-11.393567 21.57029,-21.49274 31.06372,-21.49274 z m -50.046043,131.8054 c -0.40539,0.0225 -4.55422,2.79778 -7.38714,4.95162 -3.37066,2.56273 -10.26941,9.40171 -13.08809,12.97493 -7.56785,9.59363 -12.66098,19.471381 -19.45257,37.725351 -1.40768,3.78354 -2.96637,7.86284 -3.46387,9.06508 -0.49749,1.20226 -0.90485,2.25835 -0.90485,2.34714 0,0.22286 0.58113,-0.22336 3.60186,-2.76728 10.17201,-8.56636 23.81684,-16.77437 36.7471,-22.10458 8.27098,-3.40953 19.59878,-6.782941 28.588953,-8.513711 2.02983,-0.39079 3.72012,-0.73594 3.75637,-0.7674 0.0363,-0.0315 -0.34613,-1.56155 -0.85008,-3.40029 -1.94382,-7.09243 -6.04579,-16.00515 -10.251583,-22.27565 -2.60752,-3.88765 -3.06773,-4.5091 -3.22305,-4.34858 -0.0601,0.0622 0.26694,5.84417 0.72708,12.84883 l 0.83664,12.73566 -9.52757,0.17362 c -5.24007,0.0955 -9.94431,0.23672 -10.45363,0.31419 -0.91049,0.13849 -0.9607,0.21585 -3.01739,4.60749 -1.81507,3.875691 -2.18257,4.483811 -2.77813,4.596601 -0.37748,0.0715 -3.06802,0.32338 -5.97844,0.55968 -2.91042,0.23632 -5.52979,0.52583 -5.82083,0.64336 -0.29105,0.11752 -1.89839,2.18051 -3.57188,4.58472 -1.67349,2.40424 -3.07806,4.33756 -3.12176,4.29639 -0.0753,-0.0709 3.38658,-11.54213 3.54242,-11.7383 0.0405,-0.051 2.41432,-0.603751 5.27511,-1.228351 2.86078,-0.6246 5.29193,-1.23799 5.40279,-1.36271 0.11083,-0.12475 0.72511,-3.36219 1.36477,-7.1949 0.63963,-3.83267 1.22759,-7.07408 1.30638,-7.20267 0.0822,-0.13417 3.68385,-0.0712 8.4522,0.1478 4.57001,0.20989 8.35432,0.33607 8.4098,0.28059 0.10666,-0.10665 -4.91342,-19.7621 -5.09323,-19.94191 -0.005,-0.005 -0.0143,-0.007 -0.0274,-0.007 z"
       id="path938"
       inkscape:connector-curvature="0"
       sodipodi:nodetypes="cccccsscccsscscccscccccccccscscccccccccccscccccccssccccccccccsccccscssccsccccccccscccscccccsccccccscscsccccccccccccccccccsccccccccscccccscsccccccccccccscccsccccsccscc" />
  </g>
</svg>
